{
    "asset" : {
        "generator" : "Khronos glTF Blender I/O v1.2.75",
        "version" : "2.0"
    },
    "scene" : 0,
    "scenes" : [
        {
            "name" : "Scene",
            "nodes" : [
                0
            ]
        }
    ],
    "nodes" : [
        {
            "mesh" : 0,
            "name" : "Cube"
        }
    ],
    "materials" : [
        {
            "doubleSided" : true,
            "name" : "base",
            "pbrMetallicRoughness" : {}
        },
        {
            "doubleSided" : true,
            "name" : "screen",
            "pbrMetallicRoughness" : {}
        },
        {
            "doubleSided" : true,
            "emissiveFactor" : [
                1,
                1,
                1
            ],
            "name" : "text",
            "pbrMetallicRoughness" : {}
        },
        {
            "doubleSided" : true,
            "emissiveFactor" : [
                1,
                0.018478840589523315,
                0.031861260533332825
            ],
            "name" : "Material",
            "pbrMetallicRoughness" : {}
        }
    ],
    "meshes" : [
        {
            "name" : "Cube",
            "primitives" : [
                {
                    "attributes" : {
                        "POSITION" : 0,
                        "NORMAL" : 1,
                        "TEXCOORD_0" : 2
                    },
                    "indices" : 3,
                    "material" : 0
                },
                {
                    "attributes" : {
                        "POSITION" : 4,
                        "NORMAL" : 5,
                        "TEXCOORD_0" : 6
                    },
                    "indices" : 7,
                    "material" : 1
                },
                {
                    "attributes" : {
                        "POSITION" : 8,
                        "NORMAL" : 9,
                        "TEXCOORD_0" : 10
                    },
                    "indices" : 11,
                    "material" : 2
                },
                {
                    "attributes" : {
                        "POSITION" : 12,
                        "NORMAL" : 13,
                        "TEXCOORD_0" : 14
                    },
                    "indices" : 15,
                    "material" : 3
                }
            ]
        }
    ],
    "accessors" : [
        {
            "bufferView" : 0,
            "componentType" : 5126,
            "count" : 2084,
            "max" : [
                0.8166000843048096,
                0.6368308067321777,
                1
            ],
            "min" : [
                -0.9417690634727478,
                -0.9467485547065735,
                -1
            ],
            "type" : "VEC3"
        },
        {
            "bufferView" : 1,
            "componentType" : 5126,
            "count" : 2084,
            "type" : "VEC3"
        },
        {
            "bufferView" : 2,
            "componentType" : 5126,
            "count" : 2084,
            "type" : "VEC2"
        },
        {
            "bufferView" : 3,
            "componentType" : 5123,
            "count" : 3528,
            "type" : "SCALAR"
        },
        {
            "bufferView" : 4,
            "componentType" : 5126,
            "count" : 44,
            "max" : [
                -0.8649032711982727,
                0.5626171827316284,
                0.9074693918228149
            ],
            "min" : [
                -0.8649032711982727,
                -0.6511037349700928,
                -0.9074693918228149
            ],
            "type" : "VEC3"
        },
        {
            "bufferView" : 5,
            "componentType" : 5126,
            "count" : 44,
            "type" : "VEC3"
        },
        {
            "bufferView" : 6,
            "componentType" : 5126,
            "count" : 44,
            "type" : "VEC2"
        },
        {
            "bufferView" : 7,
            "componentType" : 5123,
            "count" : 102,
            "type" : "SCALAR"
        },
        {
            "bufferView" : 8,
            "componentType" : 5126,
            "count" : 16,
            "max" : [
                -0.8649032711982727,
                0.3977294862270355,
                0.9074693918228149
            ],
            "min" : [
                -0.8649032711982727,
                0.013221561908721924,
                -0.17761434614658356
            ],
            "type" : "VEC3"
        },
        {
            "bufferView" : 9,
            "componentType" : 5126,
            "count" : 16,
            "type" : "VEC3"
        },
        {
            "bufferView" : 10,
            "componentType" : 5126,
            "count" : 16,
            "type" : "VEC2"
        },
        {
            "bufferView" : 11,
            "componentType" : 5123,
            "count" : 24,
            "type" : "SCALAR"
        },
        {
            "bufferView" : 12,
            "componentType" : 5126,
            "count" : 615,
            "max" : [
                0.5616681575775146,
                -0.8650233745574951,
                0.8801544904708862
            ],
            "min" : [
                -0.6437770128250122,
                -0.9107430577278137,
                -0.8801544904708862
            ],
            "type" : "VEC3"
        },
        {
            "bufferView" : 13,
            "componentType" : 5126,
            "count" : 615,
            "type" : "VEC3"
        },
        {
            "bufferView" : 14,
            "componentType" : 5126,
            "count" : 615,
            "type" : "VEC2"
        },
        {
            "bufferView" : 15,
            "componentType" : 5123,
            "count" : 2184,
            "type" : "SCALAR"
        }
    ],
    "bufferViews" : [
        {
            "buffer" : 0,
            "byteLength" : 25008,
            "byteOffset" : 0
        },
        {
            "buffer" : 0,
            "byteLength" : 25008,
            "byteOffset" : 25008
        },
        {
            "buffer" : 0,
            "byteLength" : 16672,
            "byteOffset" : 50016
        },
        {
            "buffer" : 0,
            "byteLength" : 7056,
            "byteOffset" : 66688
        },
        {
            "buffer" : 0,
            "byteLength" : 528,
            "byteOffset" : 73744
        },
        {
            "buffer" : 0,
            "byteLength" : 528,
            "byteOffset" : 74272
        },
        {
            "buffer" : 0,
            "byteLength" : 352,
            "byteOffset" : 74800
        },
        {
            "buffer" : 0,
            "byteLength" : 204,
            "byteOffset" : 75152
        },
        {
            "buffer" : 0,
            "byteLength" : 192,
            "byteOffset" : 75356
        },
        {
            "buffer" : 0,
            "byteLength" : 192,
            "byteOffset" : 75548
        },
        {
            "buffer" : 0,
            "byteLength" : 128,
            "byteOffset" : 75740
        },
        {
            "buffer" : 0,
            "byteLength" : 48,
            "byteOffset" : 75868
        },
        {
            "buffer" : 0,
            "byteLength" : 7380,
            "byteOffset" : 75916
        },
        {
            "buffer" : 0,
            "byteLength" : 7380,
            "byteOffset" : 83296
        },
        {
            "buffer" : 0,
            "byteLength" : 4920,
            "byteOffset" : 90676
        },
        {
            "buffer" : 0,
            "byteLength" : 4368,
            "byteOffset" : 95596
        }
    ],
    "buffers" : [
        {
            "byteLength" : 99964,
            "uri" : "data:application/octet-stream;base64,"
        }
    ]
}
